<svg xmlns="http://www.w3.org/2000/svg" viewBox="0 0 32 32">
    <title>43-Speech Bubble-Question</title>
    <g id="_43-Speech_Bubble-Question" data-name="43-Speech Bubble-Question">
        <path fill="goldenrod" d="M21,0H11A11,11,0,0,0,0,11v4A11,11,0,0,0,11,26h1v5a1,1,0,0,0,1.71.71L19.41,26H21A11,11,0,0,0,32,15V11A11,11,0,0,0,21,0Zm9,15a9,9,0,0,1-9,9H19a1,1,0,0,0-.71.29L14,28.59V25a1,1,0,0,0-1-1H11a9,9,0,0,1-9-9V11a9,9,0,0,1,9-9H21a9,9,0,0,1,9,9Z"/>
        <path fill="goldenrod" d="M17,5H15a5,5,0,0,0-5,5h2a3,3,0,0,1,3-3h2a3,3,0,0,1,0,6H16a1,1,0,0,0-1,1v3h2V15A5,5,0,0,0,17,5Z"/>
        <rect fill="goldenrod" x="15" y="19" width="2" height="2"/>
    </g>
</svg>